<svg xmlns="http://www.w3.org/2000/svg" height="512pt" version="1.1" viewBox="0 0 512 512" width="512pt">
<g id="surface1">
<path d="M 512 256 C 512 397.386719 397.386719 512 256 512 C 114.613281 512 0 397.386719 0 256 C 0 114.613281 114.613281 0 256 0 C 397.386719 0 512 114.613281 512 256 Z M 512 256 " style=" stroke:none;fill-rule:nonzero;fill:rgb(100%,83.137255%,0%);fill-opacity:1;" />
<path d="M 512 256 C 512 253.945312 511.96875 251.898438 511.921875 249.859375 L 336.875 74.808594 L 79.132812 386.210938 L 198.414062 505.492188 C 216.921875 509.75 236.199219 512 256 512 C 397.386719 512 512 397.386719 512 256 Z M 512 256 " style=" stroke:none;fill-rule:nonzero;fill:rgb(99.215686%,72.941176%,7.058824%);fill-opacity:1;" />
<path d="M 79.132812 386.210938 L 188.699219 210.371094 L 163.113281 150.359375 L 170.597656 140.21875 C 180.921875 126.214844 184.289062 108.265625 179.738281 91.472656 L 175.222656 74.808594 L 217.410156 56.550781 L 294.6875 56.550781 L 336.875 74.808594 L 332.359375 91.472656 C 327.808594 108.265625 331.175781 126.214844 341.503906 140.21875 L 348.984375 150.359375 L 323.398438 210.371094 L 432.96875 386.210938 C 432.964844 386.210938 276.003906 494.511719 79.132812 386.210938 Z M 79.132812 386.210938 " style=" stroke:none;fill-rule:nonzero;fill:rgb(100%,0%,40.784314%);fill-opacity:1;" />
<path d="M 432.964844 386.210938 L 323.398438 210.371094 L 348.984375 150.359375 L 341.503906 140.21875 C 331.175781 126.214844 327.808594 108.265625 332.359375 91.472656 L 336.875 74.808594 L 294.6875 56.550781 L 255.761719 56.550781 L 255.761719 434.335938 C 362.046875 435.140625 432.964844 386.210938 432.964844 386.210938 Z M 432.964844 386.210938 " style=" stroke:none;fill-rule:nonzero;fill:rgb(89.803922%,5.490196%,43.921569%);fill-opacity:1;" />
<path d="M 294.6875 56.550781 L 294.6875 95.890625 C 294.6875 117.230469 277.386719 134.53125 256.046875 134.53125 C 234.710938 134.53125 217.410156 117.230469 217.410156 95.890625 L 217.410156 56.550781 Z M 294.6875 56.550781 " style=" stroke:none;fill-rule:nonzero;fill:rgb(89.803922%,5.490196%,43.921569%);fill-opacity:1;" />
<path d="M 255.761719 56.550781 L 255.761719 134.523438 C 255.859375 134.523438 255.953125 134.53125 256.050781 134.53125 C 277.390625 134.53125 294.6875 117.230469 294.6875 95.890625 L 294.6875 56.550781 Z M 255.761719 56.550781 " style=" stroke:none;fill-rule:nonzero;fill:rgb(84.313725%,15.686275%,47.058824%);fill-opacity:1;" />
</g>
</svg>