<?xml version="1.0" encoding="iso-8859-1"?>
<!-- Generator: Adobe Illustrator 17.1.0, SVG Export Plug-In . SVG Version: 6.00 Build 0)  -->
<!DOCTYPE svg PUBLIC "-//W3C//DTD SVG 1.1//EN" "http://www.w3.org/Graphics/SVG/1.1/DTD/svg11.dtd">
<svg version="1.1" id="Capa_1" xmlns="http://www.w3.org/2000/svg" xmlns:xlink="http://www.w3.org/1999/xlink" x="0px" y="0px"
	 viewBox="0 0 354.17 354.17" style="enable-background:new 0 0 354.17 354.17;" xml:space="preserve">
<path style="fill:#000001;" d="M308.311,261.522c-3.432,0-6.773,0.391-9.991,1.109L192.085,179.5v-34.71
	c32.92-6.933,57.713-36.196,57.713-71.149c0-40.094-32.619-72.713-72.713-72.713s-72.713,32.619-72.713,72.713
	c0,34.953,24.792,64.216,57.713,71.149v34.71L55.851,262.631c-3.219-0.718-6.559-1.109-9.991-1.109
	C20.572,261.522,0,282.095,0,307.382s20.572,45.859,45.859,45.859s45.859-20.572,45.859-45.859c0-10.319-3.428-19.852-9.203-27.523
	l79.569-62.265v46.507c-17.87,6.268-30.723,23.297-30.723,43.281c0,25.287,20.572,45.859,45.859,45.859s45.859-20.572,45.859-45.859
	c0-20.085-12.985-37.184-30.996-43.374v-46.414l79.569,62.265c-5.774,7.671-9.203,17.204-9.203,27.523
	c0,25.287,20.572,45.859,45.859,45.859s45.859-20.572,45.859-45.859S333.598,261.522,308.311,261.522z M45.859,323.241
	c-8.745,0-15.859-7.115-15.859-15.859c0-8.745,7.114-15.86,15.859-15.86s15.859,7.115,15.859,15.86
	C61.719,316.126,54.604,323.241,45.859,323.241z M177.222,323.241c-8.745,0-15.859-7.115-15.859-15.859
	c0-8.745,7.114-15.86,15.859-15.86s15.859,7.115,15.859,15.86C193.081,316.126,185.967,323.241,177.222,323.241z M308.311,323.241
	c-8.745,0-15.859-7.115-15.859-15.859c0-8.745,7.114-15.86,15.859-15.86s15.859,7.115,15.859,15.86
	C324.17,316.126,317.056,323.241,308.311,323.241z"/>
<g>
</g>
<g>
</g>
<g>
</g>
<g>
</g>
<g>
</g>
<g>
</g>
<g>
</g>
<g>
</g>
<g>
</g>
<g>
</g>
<g>
</g>
<g>
</g>
<g>
</g>
<g>
</g>
<g>
</g>
</svg>
