<?xml version="1.0" encoding="iso-8859-1"?>
<!-- Generator: Adobe Illustrator 19.0.0, SVG Export Plug-In . SVG Version: 6.00 Build 0)  -->
<svg version="1.1" id="Layer_1" xmlns="http://www.w3.org/2000/svg" xmlns:xlink="http://www.w3.org/1999/xlink" x="0px" y="0px"
	 viewBox="0 0 512 512" style="enable-background:new 0 0 512 512;" xml:space="preserve">
<circle style="fill:#C2001B;" cx="256" cy="256" r="256"/>
<path style="fill:#940030;" d="M508.625,214.447L402.82,108.642L93.072,424.058l70.875,70.875C192.515,505.947,223.549,512,256,512
	c141.384,0,256-114.616,256-256C512,241.85,510.833,227.973,508.625,214.447z"/>
<path style="fill:#FFFFFF;" d="M162.909,368.299l-15.76-15.76c0,0-25.39,17.589-39.16,7.64l-7.88,7.88l-13.052,49.985l2.42,2.42
	l22.652-22.652c-2.345-4.873-1.514-10.904,2.52-14.938l0,0c5.104-5.103,13.409-5.103,18.511,0c5.103,5.103,5.103,13.407,0,18.511
	c-2.551,2.551-5.904,3.827-9.256,3.827c-1.948,0-3.891-0.445-5.684-1.307L95.57,426.558l1.833,1.833l49.985-13.053l7.88-7.88
	C145.32,393.688,162.909,368.299,162.909,368.299z"/>
<path style="fill:#FFEDB5;" d="M154.933,360.32l-21.94,22.402c0.055,0.053,0.114,0.098,0.167,0.152
	c5.103,5.103,5.103,13.407,0,18.511c-2.551,2.551-5.904,3.827-9.256,3.827c-1.948,0-3.891-0.445-5.682-1.307l-22.652,22.65
	l1.833,1.833l49.985-13.053l7.88-7.88c-9.949-13.769,7.64-39.16,7.64-39.16L154.933,360.32z"/>
<circle style="fill:#FFFFFF;" cx="123.906" cy="392.137" r="4.47"/>
<path style="fill:#FFC61B;" d="M412.748,144.663l-41.312-41.315c-1.117-1.117-2.631-1.745-4.21-1.745
	c-1.579,0-3.094,0.627-4.21,1.745L132.215,334.146c-1.117,1.117-1.745,2.631-1.745,4.21s0.628,3.094,1.745,4.21l41.313,41.313
	c1.162,1.164,2.688,1.745,4.21,1.745s3.048-0.581,4.21-1.745l230.8-230.796C415.075,150.759,415.075,146.987,412.748,144.663z"/>
<path style="fill:#E2A305;" d="M389.204,121.118L152.478,362.829l21.052,21.052c1.162,1.164,2.688,1.745,4.212,1.745
	s3.048-0.581,4.21-1.745L412.75,153.085c2.326-2.326,2.326-6.096,0-8.421L389.204,121.118z"/>
<path style="fill:#E58F05;" d="M428.047,133.87c0,0-46.895-46.897-47.116-47.118c-10.274-10.273-26.991-10.271-37.264,0.002
	l-90.452,90.453c-2.581,2.579-2.581,6.761,0,9.34c1.289,1.289,2.981,1.934,4.67,1.934s3.381-0.645,4.67-1.934l90.452-90.452
	c3.932-3.932,9.754-4.836,14.567-2.731L265.502,195.437l55.158,55.16l107.387-107.386
	C430.626,140.631,430.626,136.449,428.047,133.87z"/>
<path style="fill:#C67500;" d="M428.047,133.87c0,0-13.417-13.419-25.933-25.934L291.226,221.16l29.436,29.436L428.049,143.21
	C430.626,140.631,430.626,136.449,428.047,133.87z"/>
<g>
</g>
<g>
</g>
<g>
</g>
<g>
</g>
<g>
</g>
<g>
</g>
<g>
</g>
<g>
</g>
<g>
</g>
<g>
</g>
<g>
</g>
<g>
</g>
<g>
</g>
<g>
</g>
<g>
</g>
</svg>
